STARTFONT 2.1
COMMENT Created by fdbbdf
FONT helvetica14i
SIZE 14 78 78
FONTBOUNDINGBOX 18 16 0 -5
STARTPROPERTIES 4
Ownership "  Copyright (c) 1984 Adobe Systems, Inc.  allchars 75orig/HO16.bits  WIDTHERR -189 -137  GUIDELINES -4 0 9 12 DONE  TOTAL BITMAP BYTES 3592  "
FONT_ASCENT 11
FONT_DESCENT 5
DEFAULT_CHAR 32
ENDPROPERTIES
CHARS 96
STARTCHAR ch-12
ENCODING -1 12
SWIDTH 0 0
DWIDTH 0 0
BBX 1 1 0 -1
BITMAP
0000
ENDCHAR
STARTCHAR sp
ENCODING -1 32
SWIDTH 0 0
DWIDTH 5 0
BBX 1 1 0 -1
BITMAP
0000
ENDCHAR
STARTCHAR !
ENCODING -1 33
SWIDTH 0 0
DWIDTH 5 0
BBX 4 12 1 -1
BITMAP
3000
3000
2000
6000
6000
6000
4000
4000
4000
0000
c000
c000
ENDCHAR
STARTCHAR "
ENCODING -1 34
SWIDTH 0 0
DWIDTH 8 0
BBX 6 4 1 7
BITMAP
6c00
6c00
4800
9000
ENDCHAR
STARTCHAR #
ENCODING -1 35
SWIDTH 0 0
DWIDTH 12 0
BBX 11 11 1 -1
BITMAP
0440
04c0
0880
3fe0
1100
1100
2200
ff80
2200
4400
4400
ENDCHAR
STARTCHAR $
ENCODING -1 36
SWIDTH 0 0
DWIDTH 10 0
BBX 9 14 1 -3
BITMAP
0200
1f00
3580
6580
6400
7c00
3e00
0f00
0b00
cb00
f600
7c00
1000
1000
ENDCHAR
STARTCHAR %
ENCODING -1 37
SWIDTH 0 0
DWIDTH 14 0
BBX 12 12 1 -1
BITMAP
0060
78c0
c8c0
8980
9b00
f600
0600
0de0
1b20
3220
3360
61c0
ENDCHAR
STARTCHAR &
ENCODING -1 38
SWIDTH 0 0
DWIDTH 11 0
BBX 9 12 1 -1
BITMAP
0f00
1980
1980
1b00
1e00
1c00
3c80
6780
c300
c300
e780
7c80
ENDCHAR
STARTCHAR '
ENCODING -1 39
SWIDTH 0 0
DWIDTH 5 0
BBX 3 4 1 7
BITMAP
6000
6000
2000
c000
ENDCHAR
STARTCHAR (
ENCODING -1 40
SWIDTH 0 0
DWIDTH 6 0
BBX 4 16 1 -5
BITMAP
1000
2000
2000
6000
4000
c000
c000
8000
8000
8000
8000
8000
8000
8000
c000
4000
ENDCHAR
STARTCHAR )
ENCODING -1 41
SWIDTH 0 0
DWIDTH 6 0
BBX 4 16 1 -5
BITMAP
2000
3000
1000
1000
1000
1000
1000
1000
3000
3000
2000
2000
4000
4000
4000
8000
ENDCHAR
STARTCHAR *
ENCODING -1 42
SWIDTH 0 0
DWIDTH 7 0
BBX 5 4 1 7
BITMAP
a800
7000
7000
a800
ENDCHAR
STARTCHAR +
ENCODING -1 43
SWIDTH 0 0
DWIDTH 10 0
BBX 8 7 1 1
BITMAP
1800
1800
1800
ff00
1800
1800
1800
ENDCHAR
STARTCHAR ,
ENCODING -1 44
SWIDTH 0 0
DWIDTH 4 0
BBX 3 4 1 -3
BITMAP
6000
6000
2000
c000
ENDCHAR
STARTCHAR -
ENCODING -1 45
SWIDTH 0 0
DWIDTH 8 0
BBX 6 1 1 4
BITMAP
fc00
ENDCHAR
STARTCHAR .
ENCODING -1 46
SWIDTH 0 0
DWIDTH 4 0
BBX 2 2 1 -1
BITMAP
c000
c000
ENDCHAR
STARTCHAR /
ENCODING -1 47
SWIDTH 0 0
DWIDTH 8 0
BBX 7 12 1 -1
BITMAP
0600
0600
0c00
0c00
1800
1800
3000
3000
6000
6000
c000
c000
ENDCHAR
STARTCHAR 0
ENCODING -1 48
SWIDTH 0 0
DWIDTH 10 0
BBX 8 12 1 -1
BITMAP
1c00
3e00
6300
6300
c300
c300
c300
c300
c600
c600
7c00
3800
ENDCHAR
STARTCHAR 1
ENCODING -1 49
SWIDTH 0 0
DWIDTH 7 0
BBX 5 12 1 -1
BITMAP
1800
3800
f800
3000
3000
3000
3000
6000
6000
6000
6000
6000
ENDCHAR
STARTCHAR 2
ENCODING -1 50
SWIDTH 0 0
DWIDTH 11 0
BBX 9 12 1 -1
BITMAP
0f00
1b80
3180
3180
0180
0300
0600
1c00
3000
6000
c000
fe00
ENDCHAR
STARTCHAR 3
ENCODING -1 51
SWIDTH 0 0
DWIDTH 10 0
BBX 8 12 1 -1
BITMAP
1e00
3300
6300
0300
0600
1e00
0600
0300
0300
c700
ce00
7c00
ENDCHAR
STARTCHAR 4
ENCODING -1 52
SWIDTH 0 0
DWIDTH 11 0
BBX 9 12 1 -1
BITMAP
0180
0380
0700
0f00
1b00
3300
6300
c600
ff80
0600
0600
0600
ENDCHAR
STARTCHAR 5
ENCODING -1 53
SWIDTH 0 0
DWIDTH 10 0
BBX 8 12 1 -1
BITMAP
3f00
2000
6000
6000
7c00
0600
0300
0300
0300
c600
ce00
7800
ENDCHAR
STARTCHAR 6
ENCODING -1 54
SWIDTH 0 0
DWIDTH 11 0
BBX 9 12 1 -1
BITMAP
1f00
3180
6180
6000
7c00
e200
c300
c300
c300
c600
6e00
3c00
ENDCHAR
STARTCHAR 7
ENCODING -1 55
SWIDTH 0 0
DWIDTH 11 0
BBX 9 12 1 -1
BITMAP
7f80
0380
0300
0600
0e00
0c00
1800
3800
3000
6000
e000
c000
ENDCHAR
STARTCHAR 8
ENCODING -1 56
SWIDTH 0 0
DWIDTH 11 0
BBX 9 12 1 -1
BITMAP
1f00
3180
6180
6180
3300
3f00
6300
c180
c180
c180
6300
3e00
ENDCHAR
STARTCHAR 9
ENCODING -1 57
SWIDTH 0 0
DWIDTH 11 0
BBX 9 12 1 -1
BITMAP
1f00
3380
6180
6180
6180
7180
3b80
1f00
0300
c300
c600
7c00
ENDCHAR
STARTCHAR :
ENCODING -1 58
SWIDTH 0 0
DWIDTH 5 0
BBX 4 9 1 -1
BITMAP
3000
3000
0000
0000
0000
0000
0000
c000
c000
ENDCHAR
STARTCHAR ;
ENCODING -1 59
SWIDTH 0 0
DWIDTH 4 0
BBX 4 11 0 -3
BITMAP
3000
3000
0000
0000
0000
0000
0000
6000
6000
2000
c000
ENDCHAR
STARTCHAR <
ENCODING -1 60
SWIDTH 0 0
DWIDTH 11 0
BBX 9 7 1 1
BITMAP
0380
1e00
7800
c000
7800
1e00
0300
ENDCHAR
STARTCHAR =
ENCODING -1 61
SWIDTH 0 0
DWIDTH 9 0
BBX 7 4 1 3
BITMAP
fe00
0000
0000
fe00
ENDCHAR
STARTCHAR >
ENCODING -1 62
SWIDTH 0 0
DWIDTH 11 0
BBX 9 7 1 1
BITMAP
6000
3c00
0f00
0180
0f00
3c00
e000
ENDCHAR
STARTCHAR ?
ENCODING -1 63
SWIDTH 0 0
DWIDTH 9 0
BBX 7 12 1 -1
BITMAP
7c00
c600
c600
c600
0c00
1800
3000
6000
6000
0000
c000
c000
ENDCHAR
STARTCHAR @
ENCODING -1 64
SWIDTH 0 0
DWIDTH 19 0
BBX 17 14 1 -3
BITMAP
01fc0000
070e0000
1c030000
39e98000
33b98000
66318000
6c310000
4c630000
cc660000
4dee0000
67f80000
60000000
38600000
1fe00000
ENDCHAR
STARTCHAR A
ENCODING -1 65
SWIDTH 0 0
DWIDTH 11 0
BBX 10 12 1 -1
BITMAP
0380
0780
0780
0d80
0d80
1980
18c0
30c0
7fc0
60c0
c0c0
c0c0
ENDCHAR
STARTCHAR B
ENCODING -1 66
SWIDTH 0 0
DWIDTH 12 0
BBX 11 12 1 -1
BITMAP
3fc0
30e0
3060
3060
30c0
7f80
6180
60c0
60c0
c0c0
c180
ff00
ENDCHAR
STARTCHAR C
ENCODING -1 67
SWIDTH 0 0
DWIDTH 12 0
BBX 11 12 1 -1
BITMAP
0780
1cc0
3060
6060
6000
c000
c000
c000
c000
60c0
7180
1f00
ENDCHAR
STARTCHAR D
ENCODING -1 68
SWIDTH 0 0
DWIDTH 12 0
BBX 11 12 1 -1
BITMAP
3f80
30c0
3060
3060
6060
6060
6060
60c0
c0c0
c180
c700
fc00
ENDCHAR
STARTCHAR E
ENCODING -1 69
SWIDTH 0 0
DWIDTH 11 0
BBX 10 12 1 -1
BITMAP
3fc0
3000
3000
3000
6000
7f80
6000
6000
c000
c000
c000
ff00
ENDCHAR
STARTCHAR F
ENCODING -1 70
SWIDTH 0 0
DWIDTH 11 0
BBX 10 12 1 -1
BITMAP
3fc0
3000
3000
3000
6000
7f00
6000
6000
c000
c000
c000
c000
ENDCHAR
STARTCHAR G
ENCODING -1 71
SWIDTH 0 0
DWIDTH 12 0
BBX 11 12 1 -1
BITMAP
0780
1cc0
3060
6000
6000
c000
c3e0
c060
c060
60c0
71c0
1ec0
ENDCHAR
STARTCHAR H
ENCODING -1 72
SWIDTH 0 0
DWIDTH 13 0
BBX 12 12 1 -1
BITMAP
3030
3030
3030
3030
6060
7fe0
6060
6060
c0c0
c0c0
c0c0
c0c0
ENDCHAR
STARTCHAR I
ENCODING -1 73
SWIDTH 0 0
DWIDTH 5 0
BBX 4 12 1 -1
BITMAP
3000
3000
3000
3000
6000
6000
6000
6000
c000
c000
c000
c000
ENDCHAR
STARTCHAR J
ENCODING -1 74
SWIDTH 0 0
DWIDTH 9 0
BBX 8 12 1 -1
BITMAP
0300
0300
0300
0300
0600
0600
0600
0600
cc00
cc00
cc00
7800
ENDCHAR
STARTCHAR K
ENCODING -1 75
SWIDTH 0 0
DWIDTH 12 0
BBX 11 12 1 -1
BITMAP
3060
30c0
3180
3300
7600
7c00
7800
6c00
c600
c300
c180
c0c0
ENDCHAR
STARTCHAR L
ENCODING -1 76
SWIDTH 0 0
DWIDTH 9 0
BBX 8 12 1 -1
BITMAP
3000
3000
3000
3000
6000
6000
6000
6000
c000
c000
c000
ff00
ENDCHAR
STARTCHAR M
ENCODING -1 77
SWIDTH 0 0
DWIDTH 15 0
BBX 14 12 1 -1
BITMAP
300c
381c
383c
382c
686c
6c58
6cd8
6c98
c598
c730
c630
c630
ENDCHAR
STARTCHAR N
ENCODING -1 78
SWIDTH 0 0
DWIDTH 13 0
BBX 12 12 1 -1
BITMAP
3830
3830
3c30
3c30
6660
6660
6660
6360
c340
c1c0
c1c0
c0c0
ENDCHAR
STARTCHAR O
ENCODING -1 79
SWIDTH 0 0
DWIDTH 13 0
BBX 12 12 1 -1
BITMAP
0fc0
3860
3030
6030
6030
c030
c030
c060
c060
60c0
7180
1f00
ENDCHAR
STARTCHAR P
ENCODING -1 80
SWIDTH 0 0
DWIDTH 11 0
BBX 10 12 1 -1
BITMAP
3f80
31c0
30c0
30c0
60c0
6180
7f00
6000
c000
c000
c000
c000
ENDCHAR
STARTCHAR Q
ENCODING -1 81
SWIDTH 0 0
DWIDTH 13 0
BBX 12 13 1 -2
BITMAP
0fc0
3860
3030
6030
6030
c030
c030
c030
c660
6360
71c0
1f60
0030
ENDCHAR
STARTCHAR R
ENCODING -1 82
SWIDTH 0 0
DWIDTH 11 0
BBX 10 12 1 -1
BITMAP
3f80
31c0
30c0
30c0
60c0
6180
7f00
6300
6180
c180
c180
c180
ENDCHAR
STARTCHAR S
ENCODING -1 83
SWIDTH 0 0
DWIDTH 11 0
BBX 10 12 1 -1
BITMAP
1f80
30c0
60c0
6000
3800
1e00
0700
0180
c180
c180
6300
3e00
ENDCHAR
STARTCHAR T
ENCODING -1 84
SWIDTH 0 0
DWIDTH 9 0
BBX 8 12 1 -1
BITMAP
ff00
1800
1800
1800
3000
3000
3000
3000
6000
6000
6000
6000
ENDCHAR
STARTCHAR U
ENCODING -1 85
SWIDTH 0 0
DWIDTH 12 0
BBX 11 12 1 -1
BITMAP
6060
6060
6060
6060
60c0
c0c0
c0c0
c0c0
c0c0
c180
6300
3e00
ENDCHAR
STARTCHAR V
ENCODING -1 86
SWIDTH 0 0
DWIDTH 11 0
BBX 10 12 1 -1
BITMAP
c0c0
c0c0
c180
c180
6300
6300
6600
6600
6c00
6c00
3800
3000
ENDCHAR
STARTCHAR W
ENCODING -1 87
SWIDTH 0 0
DWIDTH 16 0
BBX 15 12 1 -1
BITMAP
c306
c306
c70c
c70c
cd98
cd98
d9b0
d9b0
71e0
70e0
60c0
60c0
ENDCHAR
STARTCHAR X
ENCODING -1 88
SWIDTH 0 0
DWIDTH 13 0
BBX 12 12 1 -1
BITMAP
7030
3060
18c0
1980
0f00
0e00
0600
0f00
1b00
3180
61c0
c0e0
ENDCHAR
STARTCHAR Y
ENCODING -1 89
SWIDTH 0 0
DWIDTH 11 0
BBX 10 12 1 -1
BITMAP
c0c0
c0c0
6180
6300
3600
3c00
1c00
1800
1800
3000
3000
3000
ENDCHAR
STARTCHAR Z
ENCODING -1 90
SWIDTH 0 0
DWIDTH 13 0
BBX 12 12 1 -1
BITMAP
1ff0
0030
0060
00c0
0180
0300
0600
0c00
1800
3000
6000
ffc0
ENDCHAR
STARTCHAR [
ENCODING -1 91
SWIDTH 0 0
DWIDTH 7 0
BBX 6 15 1 -4
BITMAP
1c00
1800
1800
3000
3000
3000
3000
6000
6000
6000
6000
c000
c000
c000
e000
ENDCHAR
STARTCHAR \
ENCODING -1 92
SWIDTH 0 0
DWIDTH 5 0
BBX 3 12 1 -1
BITMAP
8000
8000
8000
c000
4000
4000
4000
4000
6000
2000
2000
2000
ENDCHAR
STARTCHAR ]
ENCODING -1 93
SWIDTH 0 0
DWIDTH 7 0
BBX 6 15 1 -4
BITMAP
1c00
0c00
0c00
1800
1800
1800
1800
3000
3000
3000
3000
6000
6000
6000
e000
ENDCHAR
STARTCHAR ^
ENCODING -1 94
SWIDTH 0 0
DWIDTH 8 0
BBX 6 7 1 4
BITMAP
1800
1800
3800
6c00
4c00
cc00
cc00
ENDCHAR
STARTCHAR _
ENCODING -1 95
SWIDTH 0 0
DWIDTH 9 0
BBX 9 4 1 -4
BITMAP
0000
0000
0000
ff80
ENDCHAR
STARTCHAR `
ENCODING -1 96
SWIDTH 0 0
DWIDTH 4 0
BBX 3 4 1 7
BITMAP
6000
8000
c000
c000
ENDCHAR
STARTCHAR a
ENCODING -1 97
SWIDTH 0 0
DWIDTH 9 0
BBX 8 9 1 -1
BITMAP
1e00
3300
0300
0700
3e00
6600
c600
ce00
7600
ENDCHAR
STARTCHAR b
ENCODING -1 98
SWIDTH 0 0
DWIDTH 10 0
BBX 8 12 1 -1
BITMAP
3000
3000
3000
6c00
7e00
6300
6300
c300
c300
c600
ee00
b800
ENDCHAR
STARTCHAR c
ENCODING -1 99
SWIDTH 0 0
DWIDTH 9 0
BBX 8 9 1 -1
BITMAP
1e00
3300
6300
c000
c000
c000
c600
6c00
3800
ENDCHAR
STARTCHAR d
ENCODING -1 100
SWIDTH 0 0
DWIDTH 10 0
BBX 9 12 1 -1
BITMAP
0180
0180
0180
1d80
7700
6300
c300
c300
c600
c600
6600
3a00
ENDCHAR
STARTCHAR e
ENCODING -1 101
SWIDTH 0 0
DWIDTH 9 0
BBX 8 9 1 -1
BITMAP
1e00
3300
6300
c300
fe00
c000
c000
6600
3c00
ENDCHAR
STARTCHAR f
ENCODING -1 102
SWIDTH 0 0
DWIDTH 6 0
BBX 6 12 1 -1
BITMAP
1c00
3000
3000
fc00
6000
6000
6000
6000
c000
c000
c000
c000
ENDCHAR
STARTCHAR g
ENCODING -1 103
SWIDTH 0 0
DWIDTH 9 0
BBX 9 13 0 -5
BITMAP
0d80
1b80
3180
6180
6300
6300
6300
6700
3a00
0600
c600
cc00
7800
ENDCHAR
STARTCHAR h
ENCODING -1 104
SWIDTH 0 0
DWIDTH 9 0
BBX 8 12 1 -1
BITMAP
3000
3000
3000
6e00
7700
6300
6300
6300
c600
c600
c600
c600
ENDCHAR
STARTCHAR i
ENCODING -1 105
SWIDTH 0 0
DWIDTH 5 0
BBX 4 12 1 -1
BITMAP
3000
3000
0000
6000
6000
6000
6000
6000
c000
c000
c000
c000
ENDCHAR
STARTCHAR j
ENCODING -1 106
SWIDTH 0 0
DWIDTH 5 0
BBX 6 16 0 -5
BITMAP
0c00
0c00
0000
1800
1800
1800
1800
1800
3000
3000
3000
3000
3000
3000
e000
c000
ENDCHAR
STARTCHAR k
ENCODING -1 107
SWIDTH 0 0
DWIDTH 9 0
BBX 8 12 1 -1
BITMAP
3000
3000
3000
6300
6600
6c00
7800
7800
ec00
cc00
c600
c600
ENDCHAR
STARTCHAR l
ENCODING -1 108
SWIDTH 0 0
DWIDTH 5 0
BBX 4 12 1 -1
BITMAP
3000
3000
3000
6000
6000
6000
6000
6000
c000
c000
c000
c000
ENDCHAR
STARTCHAR m
ENCODING -1 109
SWIDTH 0 0
DWIDTH 14 0
BBX 13 9 1 -1
BITMAP
6ef0
77b8
6318
6318
6318
c630
c630
c630
c630
ENDCHAR
STARTCHAR n
ENCODING -1 110
SWIDTH 0 0
DWIDTH 9 0
BBX 8 9 1 -1
BITMAP
6e00
7300
6300
6300
c300
c600
c600
c600
c600
ENDCHAR
STARTCHAR o
ENCODING -1 111
SWIDTH 0 0
DWIDTH 9 0
BBX 8 9 1 -1
BITMAP
1c00
7600
6300
c300
c300
c300
c600
6e00
3800
ENDCHAR
STARTCHAR p
ENCODING -1 112
SWIDTH 0 0
DWIDTH 10 0
BBX 9 13 1 -5
BITMAP
3700
3b80
3180
3180
6180
6180
6300
7700
6e00
c000
c000
c000
c000
ENDCHAR
STARTCHAR q
ENCODING -1 113
SWIDTH 0 0
DWIDTH 9 0
BBX 8 13 1 -5
BITMAP
1d00
3700
6300
c300
c300
c600
c600
6e00
3600
0600
0c00
0c00
0c00
ENDCHAR
STARTCHAR r
ENCODING -1 114
SWIDTH 0 0
DWIDTH 8 0
BBX 7 9 1 -1
BITMAP
6e00
7600
6000
6000
6000
c000
c000
c000
c000
ENDCHAR
STARTCHAR s
ENCODING -1 115
SWIDTH 0 0
DWIDTH 8 0
BBX 7 9 1 -1
BITMAP
3c00
6600
4000
7000
3c00
0c00
8400
cc00
7800
ENDCHAR
STARTCHAR t
ENCODING -1 116
SWIDTH 0 0
DWIDTH 6 0
BBX 5 11 1 -1
BITMAP
3000
3000
f800
6000
6000
6000
c000
c000
c000
c000
7000
ENDCHAR
STARTCHAR u
ENCODING -1 117
SWIDTH 0 0
DWIDTH 10 0
BBX 8 9 1 -1
BITMAP
6300
6300
6300
6300
c600
c600
c600
ee00
7600
ENDCHAR
STARTCHAR v
ENCODING -1 118
SWIDTH 0 0
DWIDTH 9 0
BBX 8 9 1 -1
BITMAP
c300
c600
c600
cc00
cc00
d800
5800
7000
7000
ENDCHAR
STARTCHAR w
ENCODING -1 119
SWIDTH 0 0
DWIDTH 13 0
BBX 12 9 1 -1
BITMAP
c630
c630
ce60
ca60
dac0
5ac0
7380
7380
6300
ENDCHAR
STARTCHAR x
ENCODING -1 120
SWIDTH 0 0
DWIDTH 9 0
BBX 8 9 1 -1
BITMAP
6300
3600
3600
1c00
1800
3800
6c00
cc00
c600
ENDCHAR
STARTCHAR y
ENCODING -1 121
SWIDTH 0 0
DWIDTH 9 0
BBX 9 12 0 -4
BITMAP
6180
6300
6300
6600
3600
3c00
3800
1800
3000
3000
e000
c000
ENDCHAR
STARTCHAR z
ENCODING -1 122
SWIDTH 0 0
DWIDTH 9 0
BBX 8 9 1 -1
BITMAP
3f00
0300
0600
0c00
1800
3000
6000
c000
fe00
ENDCHAR
STARTCHAR {
ENCODING -1 123
SWIDTH 0 0
DWIDTH 7 0
BBX 5 16 1 -5
BITMAP
3800
2000
4000
4000
4000
4000
4000
c000
4000
4000
4000
4000
4000
4000
2000
3800
ENDCHAR
STARTCHAR |
ENCODING -1 124
SWIDTH 0 0
DWIDTH 5 0
BBX 4 16 1 -5
BITMAP
1000
1000
1000
1000
3000
2000
2000
2000
2000
6000
4000
4000
c000
8000
8000
8000
ENDCHAR
STARTCHAR }
ENCODING -1 125
SWIDTH 0 0
DWIDTH 7 0
BBX 5 16 1 -5
BITMAP
e000
2000
1000
1000
1000
1000
1000
1800
1000
1000
1000
1000
1000
1000
2000
e000
ENDCHAR
STARTCHAR ~
ENCODING -1 126
SWIDTH 0 0
DWIDTH 10 0
BBX 8 3 1 4
BITMAP
7100
db00
8e00
ENDCHAR
ENDFONT
